<?xml version="1.0" encoding="UTF-8" standalone="no"?>
<svg
   width="256"
   height="256"
   viewBox="0 0 67.733334 67.733333"
   version="1.1"
   id="svg1045"
   sodipodi:docname="app_icon.svg"
   inkscape:version="1.2.2 (732a01da63, 2022-12-09)"
   xmlns:inkscape="http://www.inkscape.org/namespaces/inkscape"
   xmlns:sodipodi="http://sodipodi.sourceforge.net/DTD/sodipodi-0.dtd"
   xmlns="http://www.w3.org/2000/svg"
   xmlns:svg="http://www.w3.org/2000/svg">
  <defs
     id="defs88" />
  <sodipodi:namedview
     id="namedview86"
     pagecolor="#ffffff"
     bordercolor="#000000"
     borderopacity="0.25"
     inkscape:showpageshadow="2"
     inkscape:pageopacity="0.0"
     inkscape:pagecheckerboard="0"
     inkscape:deskcolor="#d1d1d1"
     showgrid="false"
     inkscape:zoom="1.9570313"
     inkscape:cx="64.383233"
     inkscape:cy="120.59082"
     inkscape:window-width="1920"
     inkscape:window-height="1017"
     inkscape:window-x="-8"
     inkscape:window-y="603"
     inkscape:window-maximized="1"
     inkscape:current-layer="svg1045" />
  <g
     id="layer1"
     transform="matrix(0.58144786,0,0,0.54675809,14.003442,15.30678)">
    <g
       id="g1333"
       transform="matrix(0.21752543,0,0,0.21421666,-57.290615,-29.990102)">
      <g
         id="g1255">
        <g
           id="Base">
          <path
             fill="#ff3333"
             stroke="#991f1f"
             stroke-width="11.1759"
             stroke-miterlimit="10"
             d="m 322.8,334.4 c 0,-54.1 43.9,-98 98,-98 54.1,0 98,43.9 98,98 0,54.1 -51.4,78.4 -98,107 -46.8,-28.6 -98,-52.9 -98,-107 z"
             id="path1223" />
        </g>
        <g
           id="Layer_2_1_">
          <path
             fill="#ffffff"
             d="m 432.5,321.1 c 0,0 17.1,-51.7 56.7,-21.3 2.6,32.3 -25.7,38 -37.3,34.1 -8.7,-2.9 -14.8,-6.9 -19.4,-12.8 z"
             id="path1226" />
          <path
             fill="#ffffff"
             d="m 355.3,302.3 c -6,23.2 29.8,61.8 53.7,18"
             id="path1228" />
          <path
             d="m 346.1,299.8 c 0,0 66.8,-11.8 63.5,21.5"
             id="path1230" />
          <path
             d="m 490,278.6 c 0,0 -66.8,-11.8 -63.5,21.5"
             id="path1232" />
        </g>
        <g
           id="Layer_5_3_">
          <path
             fill="#ff3333"
             d="m 338.8,332.5 c 10.3,-18.9 34.6,-4.1 45.2,8.7 10.9,23.1 2.9,12.2 2.9,12.2 z"
             id="path1235" />
        </g>
        <g
           id="Layer_3_3_">
          <circle
             cx="458.10001"
             cy="316.79999"
             r="12.9"
             id="circle1238" />
          <circle
             cx="384.39999"
             cy="319.60001"
             r="12.9"
             id="circle1240" />
        </g>
        <g
           id="Layer_7_3_">
          <circle
             fill="#ffffff"
             cx="389.70001"
             cy="319.60001"
             r="2.8"
             id="circle1243" />
          <circle
             fill="#ffffff"
             cx="462.5"
             cy="313.10001"
             r="2.8"
             id="circle1245" />
        </g>
        <g
           id="Layer_10">
          <g
             id="g1252">
            <g
               id="g1250">
              <path
                 d="m 363.1,340.8 c 1.9,30.9 31,55.8 61.8,53.6 8.8,-0.6 17.2,-3.3 24.6,-7.9 2.1,-1.3 -4.5,-7 -6.5,-5.8 -14.3,9 -33.7,11 -48.9,3.1 -14.1,-7.3 -22.5,-23.1 -23.5,-38.6 -0.1,-1.8 -2.4,-3.4 -3.8,-4.1 -0.6,-0.4 -3.9,-2 -3.7,-0.3 z"
                 id="path1248" />
            </g>
          </g>
        </g>
      </g>
      <g
         id="g1281">
        <g
           id="g1269">
          <g
             id="g1267">
            <path
               fill="#ffd426"
               stroke="#000000"
               stroke-width="1.528"
               stroke-miterlimit="10"
               d="m 334.6,262.9 -0.4,-12 c 0,-0.6 -0.3,-1.2 -0.7,-1.6 -1,-1.1 -2.5,-3.3 0.2,-5.3 3.6,-2.7 23.7,-8.2 23.7,-8.2 0,0 35.1,-7.7 64,-6.8 0,0 22.3,-0.5 40.1,2.5 17.8,3 27.3,5.2 27.3,5.2 0,0 9.3,1.8 17.5,5 0,0 1.9,1.7 0.8,3.4 -0.3,0.5 -0.6,1.2 -0.5,1.8 0.3,2.6 0.8,9.3 -1.5,15.1 -0.2,0.6 -0.3,1.2 -0.1,1.8 0.4,1.1 0.8,3.2 -0.7,4.7 -0.6,0.6 -1.6,0.8 -2.5,0.5 -4.2,-1.5 -20.7,-6.5 -51.7,-8.7 -36.5,-2.7 -58.6,-1.1 -85.5,3.4 0,0 -20.3,2.6 -24.3,6.7 -0.8,0.8 -2,0.9 -3,0.5 -1.9,-0.9 -4.2,-2.4 -3,-4 0.5,-0.6 0.7,-1.4 0.5,-2.1 -0.2,-0.6 -0.3,-1.2 -0.2,-1.9 z"
               id="path1257" />
            <path
               fill="#ffd426"
               stroke="#000000"
               stroke-width="1.528"
               stroke-miterlimit="10"
               d="m 359.5,225.9 c 1.7,0.7 2.1,3 0.6,4.2 -3.4,2.7 -7,3.3 -7,3.3 0,0 -2.3,0.7 -4.9,0 -2,-0.5 -2.5,-3.1 -0.9,-4.4 0.9,-0.7 1.7,-1.8 2,-3.4 0.9,-4.5 1.3,-7.1 0.8,-9.9 0,0 -0.1,-1.2 -0.4,-2 -0.4,-0.8 -4.1,-2.6 -2.9,-6 1.1,-3.4 2.6,-2.9 2.6,-2.9 0,0 2.9,-0.5 4.8,2.8 1.9,3.3 -0.5,5.1 -0.5,5.1 0,0 -0.4,0.8 -0.1,1.6 0.2,0.9 1.1,7.6 3.9,10.1 0.6,0.8 1.3,1.2 2,1.5 z"
               id="path1259" />
            <path
               fill="#ffd426"
               stroke="#000000"
               stroke-width="1.528"
               stroke-miterlimit="10"
               d="m 404.6,215.5 c 1.1,0.8 2.2,2.5 1.4,3.6 -1.3,1.9 -3.3,2.7 -4.8,4.1 -2.3,2.3 -4.7,2 -5.8,1.8 -0.3,-0.1 -0.6,-0.2 -0.9,-0.3 -3.9,-1.2 -9.1,-5.5 -10.7,-7.3 -0.8,-0.9 2.7,-2.5 3.5,-3.4 1.6,-1.9 4.2,-5.4 4.6,-9.5 0,0 0.9,-3.3 0.8,-3.8 -0.1,-0.5 0.2,-1 -0.7,-1.2 -0.9,-0.2 -8,-3.4 -3.8,-8.8 3.8,-4.9 9,-1.7 9.9,-1.1 0.1,0.1 0.2,0.1 0.2,0.2 0.6,0.6 3.6,3.5 0.9,7.6 -0.2,0.3 -0.5,0.6 -0.8,0.8 -0.5,0.3 -1.4,0.8 -1.6,0.8 -0.4,0.1 -0.5,0.9 -0.4,1.9 0.1,1 1.1,6.8 3.8,10.3 2.7,3.3 4.4,4.3 4.4,4.3 0,0 0,0 0,0 z"
               id="path1261" />
            <path
               fill="#ffd426"
               stroke="#000000"
               stroke-width="1.528"
               stroke-miterlimit="10"
               d="m 450.7,217.5 c 1.5,0.8 1.7,3 0.3,4 -4.1,3.3 -8,4 -9.3,3.7 -2.1,-0.6 -4.5,-1.9 -6.4,-4.2 -0.4,-0.5 -0.7,-1.1 -1,-1.7 -0.8,-1.3 0.8,-3.1 2.2,-3.6 0.9,-0.4 1.8,-1 2.7,-2.2 2.2,-3.2 3.9,-5.9 4.5,-8.5 0.6,-2.5 0.6,-4.3 0.6,-4.3 0,0 0.4,-1.1 -1.1,-1.7 -1.5,-0.6 -4.9,-4 -2.9,-7 1.4,-2.1 2.8,-2.9 3.5,-3.2 0.3,-0.1 0.5,-0.2 0.8,-0.2 1.1,-0.1 4.4,0 5.7,2.7 1.6,3.3 -0.6,5.9 -0.6,5.9 0,0 -1.4,1.8 -2.5,2.1 -1.1,0.4 -0.7,6.1 -0.7,6.1 0,0 -0.4,6.3 1.9,9.8 0.6,1.2 1.5,1.9 2.3,2.3 z"
               id="path1263" />
            <path
               fill="#ffd426"
               stroke="#000000"
               stroke-width="1.528"
               stroke-miterlimit="10"
               d="m 493.9,229.6 c -0.9,1 -1.9,1.9 -2.9,2.7 -5.3,4.3 -10.7,-1.2 -10.7,-1.2 0,0 0,0 -0.9,-0.7 -0.6,-0.5 -2.1,-2.7 -3.5,-5.8 -0.6,-1.4 0.1,-3 1.6,-3.4 1.2,-0.3 2.6,-1 3.7,-2.5 2.4,-3.5 5,-6.9 6.1,-9.6 l 1.2,-2.4 c 0,0 0.7,-0.6 -0.4,-2 -1.1,-1.4 -0.9,-3 -0.9,-3 0,0 0.2,-3.8 3.3,-4.6 3.1,-0.8 4.6,0.2 4.6,0.2 0,0 4.6,2.4 1.9,7 0,0 -1.1,2.3 -4.2,2.4 -1.1,0 -2.1,0.8 -2.4,1.9 -0.1,0.3 -0.1,0.6 -0.2,0.9 -0.4,2.5 -2.6,11.2 -2.6,15.6 0,4.4 1.2,4.3 1.2,4.3 0,0 2,1.4 4,0.7 z"
               id="path1265" />
          </g>
        </g>
        <path
           fill="none"
           stroke="#ffffff"
           stroke-width="2.2008"
           stroke-linecap="round"
           stroke-miterlimit="10"
           d="m 337.5,264.7 c 0,0 3.8,-3.9 34.2,-7.6"
           id="path1271" />
        <path
           fill="none"
           stroke="#ffffff"
           stroke-width="2.2008"
           stroke-linecap="round"
           stroke-miterlimit="10"
           d="m 505.2,246.3 c 0,0 -0.6,-1.4 -4.6,-2.5 -4,-1.1 -13.8,-3.5 -28.2,-6.4"
           id="path1273" />
        <path
           fill="none"
           stroke="#ffffff"
           stroke-width="2.2008"
           stroke-linecap="round"
           stroke-miterlimit="10"
           d="m 503.4,263.3 c 0,0 -0.6,1.7 -6.5,-0.1 -5.9,-1.8 -16.6,-3.7 -16.6,-3.7"
           id="path1275" />
        <path
           fill="none"
           stroke="#ffffff"
           stroke-width="2.2008"
           stroke-linecap="round"
           stroke-miterlimit="10"
           d="m 445.7,190.4 c 0,0 3.7,0.7 2.8,5.3"
           id="path1277" />
        <line
           fill="none"
           stroke="#ffffff"
           stroke-width="2.2008"
           stroke-linecap="round"
           stroke-miterlimit="10"
           x1="320.89999"
           y1="186.60001"
           x2="325.10001"
           y2="197.39999"
           id="line1279" />
      </g>
      <path
         fill="none"
         stroke="#ffffff"
         stroke-width="2.2008"
         stroke-linecap="round"
         stroke-miterlimit="10"
         d="m 397.2,211.2 c 0,0 2.7,4.4 5.4,5.6"
         id="path1283" />
      <path
         fill="#ffd426"
         stroke="#000000"
         stroke-width="1.528"
         stroke-miterlimit="10"
         d="m 409.9,214.1 c -3.2,4.3 -5.9,6.9 -8.7,9.1 -2.3,1.8 -4.7,1.8 -5.7,1.5 -0.3,-0.1 -0.6,-0.1 -0.9,-0.2 -4.2,-1.3 -9.2,-5.3 -10.7,-7.1 -5,-4.1 -8,-13.8 -10,-23.4 -1.5,-7.3 -2,-21 -2.3,-22.4 -0.3,-1.4 1,-1.8 1,-1.8 0,0 3.8,-3.1 2.4,-9.1 -1.3,-5.9 -5.2,-6.7 -5.2,-6.7 0,0 -7.2,-2.2 -6.8,6.7 0.3,6 2.3,8.4 3.6,9.3 0.6,0.4 1.1,1.1 1.1,1.9 0.1,1.4 0.3,4.1 1,9.5 1.2,10.1 0,33 -1.5,36.1 0,0 -0.9,2.4 -1.8,4.7 -0.9,2.3 -2.1,4.4 -2.1,4.4 -4.1,5.6 -10.2,6.8 -10.2,6.8 0,0 -6,1.7 -9.4,-3 -3.4,-4.7 -6.9,-11.8 -6.9,-11.8 -5.5,-10.6 -7.3,-15.9 -8.7,-18.4 -1.3,-2.6 -5.4,-14.4 -6.2,-15.7 -0.8,-1.3 0.4,-2.8 0.4,-2.8 1.7,-3 0.2,-6.3 -0.1,-7.1 0,-0.1 -0.1,-0.2 -0.2,-0.3 -3,-4.8 -7.5,-3.1 -7.5,-3.1 0,0 -3.2,0.8 -3.6,5.3 -0.4,4.5 4.6,8.4 5.5,8.4 0.9,0 1.5,1 1.5,1 0,0 0.4,1.9 3,9.5 2.7,7.6 5.9,21.1 5.9,21.1 0,0 2.5,9.4 2.7,15.6 0.1,4.2 2.7,7.8 4.3,9.6 0.7,0.8 1.9,1.1 2.9,0.6 6.7,-2.8 20.7,-6.7 20.7,-6.7 0,0 35.1,-7.7 64,-6.8 0,0 22.3,-0.5 40.1,2.5 17.8,3 27.3,5.2 27.3,5.2 0,0 7.7,1.5 15.2,4.1 0.9,0.3 1.9,0.1 2.6,-0.6 0.7,-0.7 1.3,-2 1.7,-4.3 1.2,-6.5 4.2,-21.6 4.2,-21.6 0,0 4.2,-18.4 6.3,-25.3 0.8,-2.5 1.3,-4.1 1.7,-5 0.4,-0.9 1.3,-1.4 2.2,-1.5 2.1,-0.1 3.3,-1.2 3.3,-1.2 5.2,-2.5 3.9,-7.6 3.6,-8.6 0,-0.1 -0.1,-0.2 -0.1,-0.3 -0.4,-0.9 -2.8,-5.1 -7.1,-2.6 -4.8,2.8 -4.2,5.7 -4.3,7.9 -0.1,2.2 -0.3,2.9 -0.7,3.6 -0.4,0.6 -4.9,9.1 -6.2,14 -1.4,4.9 -5.5,15.6 -8.3,20.8 -2.8,5.2 -6.6,12 -12,16.3 -5.3,4.3 -10.7,-1.2 -10.7,-1.2 0,0 0,0 -0.9,-0.7 -0.9,-0.7 -3,-5.4 -5.3,-10.6 -0.6,-1.3 -0.6,-3.2 -1.1,-4.8 -0.5,-2.9 -0.3,-22.1 0.9,-31.7 0.7,-5.4 1.6,-8 1.8,-9.3 0.1,-0.8 0.6,-1.4 1.3,-1.8 1.4,-0.8 4.1,-2.9 4.5,-8.9 0.4,-6.3 -5.8,-6.9 -5.8,-6.9 0,0 -4.3,0.1 -6.2,5.9 -1.9,5.8 1.6,9.3 1.6,9.3 0,0 1.2,0.5 0.8,1.9 -0.4,1.4 -2.2,15 -4.3,22.1 -2.8,9.4 -10,20.8 -14.6,24.3 l 0.1,-0.1 c -4.9,5.1 -10,6.1 -11.5,5.7 -2.1,-0.6 -4.5,-1.9 -6.4,-4.2 -1,-1.3 -2.7,-3.2 -3.8,-5.5 -6.5,-11 -7.2,-30 -7.2,-30 0,0 -0.9,-14.7 -1.1,-17.4 -0.1,-1 -0.1,-1.8 0,-2.5 0.1,-0.9 0.6,-1.7 1.4,-2 0.6,-0.3 1.1,-0.6 1.3,-0.8 0.1,-0.1 0.2,-0.1 0.3,-0.2 0.5,-0.5 2.3,-2.7 2.1,-6.4 -0.3,-4.3 -4.5,-6.2 -4.5,-6.2 0,0 -4.8,-2.4 -6.9,3.7 -2.1,6.1 2.7,9.7 2.7,9.7 0,0 1,0.1 1,1.9 0,1.8 -1.5,20.1 -1.5,20.1 0,0 -2.3,19.7 -9,28.5 z"
         id="path1285" />
      <path
         fill="none"
         stroke="#ffffff"
         stroke-width="2.2008"
         stroke-linecap="round"
         stroke-miterlimit="10"
         d="m 422.9,152 c 0,0 3.5,1.8 2,6.7"
         id="path1287" />
      <path
         fill="none"
         stroke="#ffffff"
         stroke-width="2.2008"
         stroke-linecap="round"
         stroke-miterlimit="10"
         d="m 423.3,200.1 c 0,0 3.4,17.7 9.8,21.8"
         id="path1289" />
    </g>
  </g>
</svg>
