<?xml version="1.0" encoding="utf-8"?>
<svg version="1.0" width="99.000000pt" height="99.000000pt" viewBox="0 0 99.000000 99.000000" preserveAspectRatio="xMidYMid meet" xmlns="http://www.w3.org/2000/svg">
  <defs>
    <radialGradient gradientUnits="userSpaceOnUse" cx="495" cy="496.309" r="460.289" id="gradient-2">
      <stop offset="0" style="stop-color: rgba(0, 0, 0, 1)"/>
      <stop offset="1" style="stop-color: rgba(0, 0, 0, 1)"/>
    </radialGradient>
    <radialGradient gradientUnits="userSpaceOnUse" cx="660" cy="599.148" r="60" id="gradient-3">
      <stop offset="0" style="stop-color: rgba(0, 0, 0, 1)"/>
      <stop offset="1" style="stop-color: rgba(0, 0, 0, 1)"/>
    </radialGradient>
  </defs>
  <g transform="translate(0.000000,99.000000) scale(0.100000,-0.100000)" fill="#000000" stroke="none">
    <path d="M376 969 c-94 -23 -223 -119 -275 -204 -76 -127 -88 -292 -29 -410 45 -87 212 -226 380 -314 l46 -25 73 44 c184 108 303 210 347 295 59 118 47 283 -29 410 -37 60 -123 136 -197 172 -67 33 -81 37 -175 39 -56 2 -119 -1 -141 -7z m389 -266 c45 -22 52 -49 27 -106 -41 -91 -151 -108 -229 -35 -22 20 -22 21 -3 57 19 38 64 85 90 94 30 11 80 7 115 -10z m-498 -64 c20 -7 21 -11 11 -33 -24 -55 48 -101 94 -59 10 9 18 24 18 34 0 12 6 16 20 12 33 -9 34 -23 4 -55 -46 -48 -70 -53 -107 -22 -18 15 -46 33 -64 40 -24 10 -35 23 -42 50 -16 57 -8 61 66 33z m97 -60 c-3 -5 -10 -7 -15 -3 -5 3 -7 10 -3 15 3 5 10 7 15 3 5 -3 7 -10 3 -15z" style="fill: url(#gradient-2);"/>
    <path d="M620 640 c-11 -11 -20 -29 -20 -40 0 -25 34 -60 58 -60 32 0 62 29 62 60 0 53 -62 78 -100 40z m70 -26 c0 -8 -5 -12 -10 -9 -6 4 -8 11 -5 16 9 14 15 11 15 -7z" style="fill: url(#gradient-3);"/>
  </g>
</svg>