<?xml version="1.0" encoding="utf-8"?>
<svg width="24px" height="24px" viewBox="0 0 24 24" fill="none" xmlns="http://www.w3.org/2000/svg">
  <path d="M12 22.08C10.0016 22.08 8.04803 21.4871 6.38666 20.3764C4.72529 19.2658 3.43077 17.6872 2.66691 15.8405C1.90306 13.9938 1.70422 11.962 2.09555 10.0022C2.48689 8.04247 3.45081 6.24286 4.86532 4.83115C6.27983 3.41944 8.08135 2.45909 10.0419 2.07164C12.0024 1.68419 14.0338 1.88706 15.879 2.65457C17.7242 3.42208 19.3002 4.71974 20.4076 6.3833C21.515 8.04687 22.104 10.0016 22.1 12C22.0921 14.6744 21.0248 17.2367 19.1318 19.1259C17.2388 21.0152 14.6744 22.0774 12 22.08ZM12 3.38C10.2999 3.38001 8.638 3.88389 7.22417 4.82799C5.81035 5.77208 4.70806 7.11404 4.05656 8.68432C3.40506 10.2546 3.23359 11.9827 3.56381 13.6504C3.89402 15.3181 4.71111 16.8505 5.91184 18.0541C7.11257 19.2576 8.64307 20.0782 10.31 20.4123C11.9769 20.7464 13.7054 20.5789 15.2772 19.9311C16.849 19.2832 18.1935 18.1841 19.1409 16.7724C20.0883 15.3608 20.596 13.7001 20.6 12C20.6013 10.8693 20.3799 9.74945 19.9484 8.70434C19.5169 7.65922 18.8838 6.70932 18.0853 5.90888C17.2867 5.10844 16.3382 4.47313 15.2941 4.03922C14.25 3.60532 13.1307 3.38131 12 3.38Z" style="fill: rgb(123, 224, 173);"/>
  <path d="M 14.63 15.53 C 14.536 15.532 14.443 15.514 14.356 15.476 C 14.269 15.438 14.192 15.382 14.127 15.31 L 11.459 12.51 C 11.325 12.37 11.25 12.179 11.25 11.98 L 11.25 6.37 C 11.25 6.171 11.325 5.98 11.459 5.84 C 11.592 5.699 11.774 5.62 11.962 5.62 C 12.151 5.62 12.333 5.699 12.466 5.84 C 12.599 5.98 12.674 6.171 12.674 6.37 L 12.674 11.67 L 15.133 14.25 C 15.266 14.391 15.342 14.581 15.342 14.78 C 15.342 14.979 15.266 15.169 15.133 15.31 C 15.068 15.38 14.989 15.436 14.903 15.474 C 14.816 15.511 14.724 15.531 14.63 15.53 Z" style="fill: rgb(123, 224, 173);"/>
</svg>