<?xml version="1.0" encoding="utf-8"?>
<svg width="256px" height="256px" viewBox="0 0 256 256" xmlns="http://www.w3.org/2000/svg">
  <path d="M248.267 128.31L8.267 128.31C3.866 128.31 0.267 130.171 0.267 132.445L0.267 140.713C0.267 142.986 3.866 144.846 8.267 144.846L248.267 144.846C252.667 144.846 256.267 142.986 256.267 140.713L256.267 132.445C256.267 130.171 252.667 128.31 248.267 128.31ZM248.267 95.237L8.267 95.237C3.866 95.237 0.267 97.097 0.267 99.371L0.267 107.64C0.267 109.913 3.866 111.774 8.267 111.774L248.267 111.774C252.667 111.774 256.267 109.913 256.267 107.64L256.267 99.371C256.267 97.097 252.667 95.237 248.267 95.237Z" style="fill: rgb(91, 175, 236);"/>
</svg>