<?xml version="1.0" encoding="UTF-8" standalone="no"?>
<svg
   width="36"
   height="36"
   viewBox="0 0 36 36"
   version="1.1"
   id="svg12"
   sodipodi:docname="github_icon.svg"
   inkscape:version="1.2.2 (732a01da63, 2022-12-09)"
   xmlns:inkscape="http://www.inkscape.org/namespaces/inkscape"
   xmlns:sodipodi="http://sodipodi.sourceforge.net/DTD/sodipodi-0.dtd"
   xmlns="http://www.w3.org/2000/svg"
   xmlns:svg="http://www.w3.org/2000/svg">
  <defs
     id="defs16" />
  <sodipodi:namedview
     id="namedview14"
     pagecolor="#ffffff"
     bordercolor="#000000"
     borderopacity="0.25"
     inkscape:showpageshadow="2"
     inkscape:pageopacity="0.0"
     inkscape:pagecheckerboard="0"
     inkscape:deskcolor="#d1d1d1"
     showgrid="false"
     inkscape:zoom="20.875"
     inkscape:cx="-1.8682635"
     inkscape:cy="12.407186"
     inkscape:window-width="2498"
     inkscape:window-height="1417"
     inkscape:window-x="1974"
     inkscape:window-y="-8"
     inkscape:window-maximized="1"
     inkscape:current-layer="svg12" />
  <path
     d="M 28.506986,0.035928 H 7.493014 c -4.1442555,0 -7.50499,3.3517964 -7.50499,7.4850299 V 28.479042 c 0,4.133233 3.3607345,7.48503 7.50499,7.48503 h 21.013972 c 4.145757,0 7.50499,-3.351797 7.50499,-7.48503 V 7.5209579 c 0,-4.1332335 -3.359233,-7.4850299 -7.50499,-7.4850299 z m -6.703457,29.326347 c -0.607904,0.116767 -0.801533,-0.255988 -0.801533,-0.57485 v -3.285928 c 0,-1.118264 -0.393261,-1.845809 -0.825549,-2.217066 2.674779,-0.296407 5.484647,-1.30988 5.484647,-5.908683 0,-1.308383 -0.468312,-2.377245 -1.235322,-3.214071 0.123082,-0.302396 0.534356,-1.520959 -0.118578,-3.169162 0,0 -1.00717,-0.321856 -3.299194,1.227545 -0.960639,-0.269461 -1.987321,-0.399701 -3.008,-0.405689 -1.020679,0.0045 -2.047361,0.136228 -3.006499,0.402695 -2.293525,-1.549401 -3.302196,-1.227545 -3.302196,-1.227545 -0.651433,1.6497 -0.240159,2.866766 -0.115576,3.170658 -0.768511,0.838324 -1.236823,1.905689 -1.236823,3.214072 0,4.586827 2.802364,5.61527 5.471138,5.919162 -0.343729,0.299401 -0.654435,0.826347 -0.762507,1.601796 -0.685956,0.30539 -2.422611,0.833833 -3.494323,-0.997006 0,0 -0.634923,-1.1497 -1.8417249,-1.235029 0,0 -1.1707785,-0.01497 -0.082555,0.729041 0,0 0.7880239,0.368264 1.3343869,1.751497 0,0 0.694962,2.137725 4.034683,1.413174 v 2.229042 c 0,0.315868 -0.193629,0.687126 -0.792527,0.576347 C 9.4323033,27.77994 5.9920159,23.290419 5.9920159,18 5.9920159,11.38473 11.368591,6.023952 18,6.023952 c 6.631409,0 12.007984,5.360778 12.007984,11.976048 0,5.288922 -3.435784,9.776946 -8.204455,11.362275 z"
     id="path10"
     style="stroke-width:1.499" />
</svg>
