<svg version="1.1" id="Capa_1" xmlns="http://www.w3.org/2000/svg" xmlns:xlink="http://www.w3.org/1999/xlink" x="0px" y="0px" viewBox="0 0 48 48" style="enable-background:new 0 0 491.398 491.398;" xml:space="preserve" width="48" height="48"><g><g id="Icons_19_"><path d="M47.059 21.531L27.006 1.477c-1.657 -1.653 -4.352 -1.655 -6.013 0.002L0.94 21.531c-1.254 1.254 -1.254 3.287 0 4.54c1.255 1.254 3.287 1.254 4.541 0l2.718 -2.719v20.989c0 1.889 1.532 3.421 3.421 3.421h7.309v-9.536c0 -0.741 0.6 -1.342 1.342 -1.342h7.458c0.741 0 1.342 0.601 1.342 1.342v9.536h7.308c1.89 0 3.421 -1.532 3.421 -3.421V23.355l2.717 2.717c0.628 0.627 1.449 0.941 2.27 0.941c0.821 0 1.643 -0.313 2.27 -0.941C48.314 24.818 48.314 22.785 47.059 21.531z"/></g></g></svg>