<?xml version="1.0" standalone="no"?>
<!DOCTYPE svg PUBLIC "-//W3C//DTD SVG 20010904//EN"
 "http://www.w3.org/TR/2001/REC-SVG-20010904/DTD/svg10.dtd">
<svg version="1.0" xmlns="http://www.w3.org/2000/svg"
 width="512.000000pt" height="512.000000pt" viewBox="0 0 512.000000 512.000000"
 preserveAspectRatio="xMidYMid meet">

<g transform="translate(0.000000,386.000000) scale(0.100000,-0.100000)"
fill="#000000" stroke="none">
<path d="M2775 3424 c-367 -37 -674 -182 -931 -438 -224 -224 -355 -470 -416
-781 -31 -155 -31 -395 0 -550 61 -311 192 -557 416 -781 224 -224 470 -355
781 -416 155 -31 395 -31 550 0 311 61 557 192 781 416 224 224 355 470 416
781 31 155 31 395 0 550 -61 311 -192 557 -416 781 -223 223 -472 355 -775
414 -99 20 -322 33 -406 24z m283 -1158 c396 -228 552 -324 552 -336 0 -12
-156 -108 -552 -336 -304 -176 -562 -319 -573 -319 -20 0 -20 8 -23 645 -1
355 0 651 3 658 3 7 13 12 23 10 9 -2 266 -146 570 -322z"/>
</g>
</svg>
