<svg width="48px" height="48px" viewBox="0 0 48 48" id="magicoon-Regular" xmlns="http://www.w3.org/2000/svg"><defs><style>.cls-1{fill:#41416e;}</style></defs><title>plus-square</title><g id="plus-square-Regular"><path id="plus-square-Regular-2" data-name="plus-square-Regular" class="cls-1" d="M30 4.5H18A13.516 13.516 0 0 0 4.5 18v12A13.516 13.516 0 0 0 18 43.5h12A13.516 13.516 0 0 0 43.5 30V18A13.516 13.516 0 0 0 30 4.5ZM40.5 30A10.512 10.512 0 0 1 30 40.5H18A10.512 10.512 0 0 1 7.5 30V18A10.512 10.512 0 0 1 18 7.5h12A10.512 10.512 0 0 1 40.5 18Zm-7 -6a1.5 1.5 0 0 1 -1.5 1.5H25.5V32a1.5 1.5 0 0 1 -3 0V25.5H16a1.5 1.5 0 0 1 0 -3h6.5V16a1.5 1.5 0 0 1 3 0v6.5H32A1.5 1.5 0 0 1 33.5 24Z"/></g></svg>