<?xml version="1.0" encoding="utf-8"?>
<svg width="48px" height="48px" viewBox="0 0 48 48" version="1.1" xmlns="http://www.w3.org/2000/svg" xmlns:bx="https://boxy-svg.com">
  <defs>
    <bx:grid x="-0.038" y="0.038" width="100" height="100"/>
  </defs>
  <g id="surface1" style="" transform="matrix(1.099983, 0, 0, 1.158011, -3.604569, -4.180532)" bx:origin="-0.188449 -0.035714">
    <path style="stroke: none; fill-rule: nonzero; fill-opacity: 1; fill: rgb(91, 175, 236);" d="M 15.212 14.901 C 15.212 9.378 19.689 5.394 25.212 5.394 C 30.735 5.394 35.212 9.378 35.212 14.901 C 35.212 20.424 30.735 24.901 25.212 24.901 C 19.692 24.893 15.22 20.421 15.212 14.901 Z M 33.446 27.042 C 32.317 26.764 31.126 26.921 30.107 27.479 C 27.064 29.167 23.36 29.167 20.317 27.479 C 19.298 26.921 18.107 26.764 16.978 27.042 C 12.97 28.077 10.181 31.706 10.212 35.842 L 10.212 37.866 C 10.212 39.131 10.552 40.374 11.196 41.464 C 11.743 42.362 12.72 42.905 13.767 42.897 L 36.657 42.897 C 37.704 42.905 38.681 42.362 39.228 41.464 C 39.872 40.374 40.212 39.131 40.212 37.862 L 40.212 35.835 C 40.239 31.698 37.45 28.077 33.446 27.042 Z M 33.446 27.042"/>
  </g>
</svg>