<?xml version="1.0" encoding="utf-8"?>
<svg width="48px" height="48px" viewBox="0 0 48 48" id="magicoon-Filled" xmlns="http://www.w3.org/2000/svg">
  <defs>
    <style>.cls-1{fill:#41416e;}</style>
  </defs>
  <title>user</title>
  <g id="user-Filled" transform="matrix(1, 0, 0, 1, -3.702359, -0.348457)">
    <path id="user-Filled-2" data-name="user-Filled" class="cls-1" d="M14 15a10 10 0 1 1 10 10A10.012 10.012 0 0 1 14 15Zm18.234 12.142a4.622 4.622 0 0 0 -3.34 0.436 10.092 10.092 0 0 1 -9.788 0 4.63 4.63 0 0 0 -3.34 -0.436 9.018 9.018 0 0 0 -6.766 8.8v2.022a7.07 7.07 0 0 0 0.986 3.6 2.988 2.988 0 0 0 2.57 1.434H35.444a2.986 2.986 0 0 0 2.57 -1.436 7.058 7.058 0 0 0 0.986 -3.6V35.934A9.018 9.018 0 0 0 32.234 27.142Z" style="fill: rgb(0, 0, 0);"/>
  </g>
</svg>