<?xml version="1.0" standalone="no"?>
<!DOCTYPE svg PUBLIC "-//W3C//DTD SVG 20010904//EN"
 "http://www.w3.org/TR/2001/REC-SVG-20010904/DTD/svg10.dtd">
<svg version="1.0" xmlns="http://www.w3.org/2000/svg"
 width="512.000000pt" height="512.000000pt" viewBox="0 0 512.000000 512.000000"
 preserveAspectRatio="xMidYMid meet">

<g transform="translate(0.000000,360.000000) scale(0.100000,-0.100000)"
fill="#000000" stroke="none">
<path d="M1675 2896 c-217 -51 -385 -213 -440 -423 -19 -73 -19 -223 0 -296
49 -188 204 -352 388 -409 101 -32 253 -32 354 0 184 57 339 221 388 409 19
74 19 223 0 297 -64 246 -282 421 -539 432 -57 2 -114 -2 -151 -10z"/>
<path d="M1458 1620 c-298 -46 -530 -211 -661 -470 -50 -97 -57 -118 -57 -169
0 -86 25 -147 84 -206 90 -89 39 -85 976 -85 937 0 886 -4 976 85 59 58 84
120 84 205 0 45 -8 72 -41 140 -119 247 -321 414 -582 482 -74 19 -114 21
-402 24 -176 1 -346 -1 -377 -6z"/>
</g>
</svg>
