<?xml version="1.0" standalone="no"?>
<!DOCTYPE svg PUBLIC "-//W3C//DTD SVG 20010904//EN"
 "http://www.w3.org/TR/2001/REC-SVG-20010904/DTD/svg10.dtd">
<svg version="1.0" xmlns="http://www.w3.org/2000/svg"
 width="512.000000pt" height="512.000000pt" viewBox="0 0 512.000000 512.000000"
 preserveAspectRatio="xMidYMid meet">

<g transform="translate(0.000000,512.000000) scale(0.100000,-0.100000)"
fill="#000000" stroke="none">
<path d="M2235 5106 c-74 -18 -169 -73 -219 -126 -73 -78 -103 -149 -132 -317
-14 -82 -29 -154 -33 -162 -4 -8 -46 -30 -93 -49 l-86 -35 -103 74 c-142 101
-148 105 -220 129 -79 27 -197 29 -269 5 -99 -33 -144 -68 -341 -264 -165
-165 -201 -206 -228 -262 -62 -127 -64 -275 -6 -390 14 -29 62 -104 107 -167
l81 -115 -38 -92 -37 -92 -81 -12 c-238 -36 -311 -64 -402 -156 -65 -65 -105
-137 -124 -223 -15 -70 -15 -534 0 -604 19 -86 59 -158 124 -223 91 -92 163
-120 400 -156 44 -6 85 -17 91 -23 6 -6 26 -48 44 -93 l33 -81 -82 -115 c-112
-159 -134 -209 -139 -323 -5 -102 10 -169 55 -250 34 -63 391 -421 456 -458
131 -75 295 -83 421 -20 27 14 101 61 163 106 l114 80 85 -32 c63 -25 86 -38
89 -54 3 -12 13 -73 24 -136 32 -193 67 -268 165 -357 57 -51 124 -85 204
-102 70 -15 534 -15 604 0 86 19 158 59 223 124 92 91 117 155 158 409 l12 80
92 37 91 37 116 -83 c125 -89 180 -119 248 -135 100 -23 224 -5 322 48 34 17
118 93 247 222 211 210 245 258 270 378 29 141 -7 258 -133 435 -41 56 -77
107 -80 112 -3 6 11 50 31 100 l38 90 79 12 c254 41 318 66 409 158 65 65 105
137 124 223 6 32 11 156 11 310 0 219 -3 267 -18 323 -25 89 -60 146 -128 208
-90 82 -142 102 -356 137 -60 9 -112 22 -117 28 -6 7 -25 48 -44 92 l-34 81
64 89 c134 187 163 254 163 380 0 83 -23 168 -64 234 -16 25 -115 132 -221
237 -161 161 -203 198 -256 223 -120 57 -247 64 -360 21 -31 -12 -114 -61
-183 -110 l-127 -89 -82 34 c-45 19 -89 38 -97 43 -9 5 -22 52 -36 135 -12 70
-30 151 -39 179 -47 147 -178 263 -333 296 -73 15 -551 13 -617 -3z m585 -302
c67 -27 78 -53 115 -264 20 -116 40 -203 52 -222 25 -43 69 -72 151 -99 37
-12 116 -44 176 -72 163 -75 137 -83 469 149 85 59 131 69 185 40 32 -17 355
-342 371 -373 16 -32 14 -89 -6 -126 -9 -18 -60 -94 -114 -170 -54 -77 -104
-156 -110 -178 -14 -46 -4 -90 42 -182 16 -32 45 -101 65 -155 38 -105 75
-155 128 -171 17 -5 105 -22 196 -36 183 -30 220 -43 253 -89 21 -30 22 -41
25 -275 5 -362 6 -361 -283 -406 -93 -15 -189 -35 -212 -45 -47 -21 -74 -57
-99 -135 -9 -27 -41 -105 -70 -171 -55 -123 -62 -161 -44 -209 6 -15 55 -89
110 -165 54 -76 106 -152 114 -169 19 -35 20 -78 5 -118 -12 -32 -331 -358
-371 -379 -35 -18 -92 -18 -129 2 -17 8 -93 60 -169 114 -76 55 -150 104 -165
110 -48 18 -85 11 -208 -44 -67 -29 -140 -59 -162 -66 -65 -20 -115 -52 -136
-87 -14 -22 -30 -90 -49 -210 -50 -305 -47 -302 -387 -303 -347 0 -339 -6
-389 287 -22 129 -40 205 -53 227 -21 34 -71 66 -136 86 -22 7 -92 35 -155 63
-119 52 -175 61 -220 37 -12 -6 -87 -58 -166 -115 -240 -171 -229 -173 -462
58 -96 95 -180 184 -188 199 -8 15 -14 47 -14 72 0 48 12 70 160 272 103 142
106 166 35 319 -20 44 -52 120 -70 169 -54 143 -67 150 -325 191 -280 45 -280
45 -280 385 0 342 -6 333 293 386 127 23 200 40 217 53 37 27 66 74 91 149 12
37 42 110 66 163 32 72 43 109 43 146 0 48 -6 58 -108 204 -123 174 -142 207
-142 244 0 52 32 93 208 268 146 145 184 177 208 178 78 3 91 -3 250 -118 82
-59 166 -113 186 -120 48 -16 83 -9 188 40 47 21 125 54 173 72 95 36 120 53
144 98 8 16 30 114 48 217 19 110 41 202 52 221 35 61 69 69 330 69 191 0 240
-3 273 -16z"/>
<path d="M2465 3549 c-231 -20 -468 -136 -630 -310 -357 -382 -357 -976 0
-1358 390 -417 1060 -417 1450 0 357 382 357 976 0 1358 -157 168 -401 291
-609 307 -39 3 -82 6 -96 8 -14 1 -65 -1 -115 -5z m273 -320 c306 -81 513
-351 513 -669 0 -388 -303 -691 -691 -691 -388 0 -691 303 -691 691 0 458 427
786 869 669z"/>
</g>
</svg>
