<svg width="48px" height="48px" viewBox="0 0 48 48" xmlns="http://www.w3.org/2000/svg" fill="none" stroke="currentColor" stroke-width="2" stroke-linecap="round" stroke-linejoin="round" class="feather feather-settings"><path cx="12" cy="12" r="3" d="M30 24A6 6 0 0 1 24 30A6 6 0 0 1 18 24A6 6 0 0 1 30 24z"/><path d="M38.8 30a3.3 3.3 0 0 0 0.66 3.64l0.12 0.12a4 4 0 0 1 0 5.66 4 4 0 0 1 -5.66 0l-0.12 -0.12a3.3 3.3 0 0 0 -3.64 -0.66 3.3 3.3 0 0 0 -2 3.02V42a4 4 0 0 1 -4 4 4 4 0 0 1 -4 -4v-0.18A3.3 3.3 0 0 0 18 38.8a3.3 3.3 0 0 0 -3.64 0.66l-0.12 0.12a4 4 0 0 1 -5.66 0 4 4 0 0 1 0 -5.66l0.12 -0.12a3.3 3.3 0 0 0 0.66 -3.64 3.3 3.3 0 0 0 -3.02 -2H6a4 4 0 0 1 -4 -4 4 4 0 0 1 4 -4h0.18A3.3 3.3 0 0 0 9.2 18a3.3 3.3 0 0 0 -0.66 -3.64l-0.12 -0.12a4 4 0 0 1 0 -5.66 4 4 0 0 1 5.66 0l0.12 0.12a3.3 3.3 0 0 0 3.64 0.66H18a3.3 3.3 0 0 0 2 -3.02V6a4 4 0 0 1 4 -4 4 4 0 0 1 4 4v0.18a3.3 3.3 0 0 0 2 3.02 3.3 3.3 0 0 0 3.64 -0.66l0.12 -0.12a4 4 0 0 1 5.66 0 4 4 0 0 1 0 5.66l-0.12 0.12a3.3 3.3 0 0 0 -0.66 3.64V18a3.3 3.3 0 0 0 3.02 2H42a4 4 0 0 1 4 4 4 4 0 0 1 -4 4h-0.18a3.3 3.3 0 0 0 -3.02 2z"/></svg>