<?xml version="1.0" encoding="UTF-8" standalone="no"?>
<!-- Generator: Adobe Illustrator 18.0.0, SVG Export Plug-In . SVG Version: 6.00 Build 0)  -->

<svg
   version="1.1"
   id="Livello_1"
   x="0px"
   y="0px"
   viewBox="0 0 128 127.99999"
   enable-background="new 0 0 595.3 841.9"
   xml:space="preserve"
   sodipodi:docname="splash.svg"
   width="128"
   height="128"
   inkscape:version="1.2.2 (732a01da63, 2022-12-09)"
   xmlns:inkscape="http://www.inkscape.org/namespaces/inkscape"
   xmlns:sodipodi="http://sodipodi.sourceforge.net/DTD/sodipodi-0.dtd"
   xmlns:xlink="http://www.w3.org/1999/xlink"
   xmlns="http://www.w3.org/2000/svg"
   xmlns:svg="http://www.w3.org/2000/svg"><defs
   id="defs772"><clipPath
     id="SVGID_2_">
						<use
   xlink:href="#SVGID_1_"
   overflow="visible"
   id="use394" />
					</clipPath><clipPath
     id="SVGID_4_">
						<use
   xlink:href="#SVGID_3_"
   overflow="visible"
   id="use406" />
					</clipPath><clipPath
     id="SVGID_6_">
						<use
   xlink:href="#SVGID_5_"
   overflow="visible"
   id="use421" />
					</clipPath><clipPath
     id="SVGID_8_">
						<use
   xlink:href="#SVGID_7_"
   overflow="visible"
   id="use437" />
					</clipPath><clipPath
     id="SVGID_10_">
					<use
   xlink:href="#SVGID_9_"
   overflow="visible"
   id="use456" />
				</clipPath><clipPath
     id="SVGID_12_">
					<use
   xlink:href="#SVGID_11_"
   overflow="visible"
   id="use468" />
				</clipPath><clipPath
     id="SVGID_14_">
							<use
   xlink:href="#SVGID_13_"
   overflow="visible"
   id="use503" />
						</clipPath><clipPath
     id="SVGID_16_">
							<use
   xlink:href="#SVGID_15_"
   overflow="visible"
   id="use531" />
						</clipPath><clipPath
     id="SVGID_18_">
						<use
   xlink:href="#SVGID_17_"
   overflow="visible"
   id="use603" />
					</clipPath><clipPath
     id="SVGID_20_">
						<use
   xlink:href="#SVGID_19_"
   overflow="visible"
   id="use615" />
					</clipPath><rect
     id="SVGID_1_"
     x="385.79999"
     y="271.70001"
     transform="matrix(-0.9981,-0.0619381,0.0619381,-0.9981,779.7449,585.5165)"
     width="26.299999"
     height="17.799999" /><rect
     id="SVGID_3_"
     x="354.70001"
     y="269.79999"
     transform="matrix(-0.9981,-0.0619381,0.0619381,-0.9981,717.7074,579.7324)"
     width="26.299999"
     height="17.799999" /><rect
     id="SVGID_5_"
     x="386.89999"
     y="271.39999"
     transform="matrix(-0.9981,-0.0619381,0.0619381,-0.9981,782.2448,576.9589)"
     width="26.4"
     height="10" /><rect
     id="SVGID_7_"
     x="354.10001"
     y="269.29999"
     transform="matrix(-0.9981,-0.0619381,0.0619381,-0.9981,716.8326,570.8601)"
     width="26.4"
     height="10" /><polygon
     id="SVGID_9_"
     points="403.4,276.5 402.7,286.6 392.7,285.9 393.3,275.9 " /><polygon
     id="SVGID_11_"
     points="364.1,274.1 363.5,284.1 373.6,284.7 374.2,274.7 " /><rect
     id="SVGID_13_"
     x="454.10001"
     y="425.70001"
     transform="matrix(-0.9762,-0.2171,0.2171,-0.9762,840.5786,994.1066)"
     width="41.599998"
     height="50.400002" /><rect
     id="SVGID_15_"
     x="378.10001"
     y="408.79999"
     transform="matrix(-0.9762,-0.2171,0.2171,-0.9762,694.0242,944.1954)"
     width="41.599998"
     height="50.400002" /><rect
     id="SVGID_17_"
     x="214.60001"
     y="218.7"
     width="22"
     height="23.4" /><rect
     id="SVGID_19_"
     x="184.10001"
     y="218.7"
     width="22"
     height="23.4" /><clipPath
     id="SVGID_2_-4">
						<use
   xlink:href="#SVGID_1_"
   overflow="visible"
   id="use394-3" />
					</clipPath><clipPath
     id="SVGID_4_-9">
						<use
   xlink:href="#SVGID_3_"
   overflow="visible"
   id="use406-9" />
					</clipPath><clipPath
     id="SVGID_6_-5">
						<use
   xlink:href="#SVGID_5_"
   overflow="visible"
   id="use421-7" />
					</clipPath><clipPath
     id="SVGID_8_-9">
						<use
   xlink:href="#SVGID_7_"
   overflow="visible"
   id="use437-0" />
					</clipPath><clipPath
     id="SVGID_10_-5">
					<use
   xlink:href="#SVGID_9_"
   overflow="visible"
   id="use456-3" />
				</clipPath><clipPath
     id="SVGID_12_-8">
					<use
   xlink:href="#SVGID_11_"
   overflow="visible"
   id="use468-7" />
				</clipPath><clipPath
     id="SVGID_14_-2">
							<use
   xlink:href="#SVGID_13_"
   overflow="visible"
   id="use503-1" />
						</clipPath><clipPath
     id="SVGID_16_-8">
							<use
   xlink:href="#SVGID_15_"
   overflow="visible"
   id="use531-4" />
						</clipPath><clipPath
     id="SVGID_18_-3">
						<use
   xlink:href="#SVGID_17_"
   overflow="visible"
   id="use603-9" />
					</clipPath><clipPath
     id="SVGID_20_-7">
						<use
   xlink:href="#SVGID_19_"
   overflow="visible"
   id="use615-3" />
					</clipPath><rect
     id="rect2981"
     x="385.79999"
     y="271.70001"
     transform="matrix(-0.9981,-0.0619381,0.0619381,-0.9981,779.7449,585.5165)"
     width="26.299999"
     height="17.799999" /><rect
     id="rect2989"
     x="354.70001"
     y="269.79999"
     transform="matrix(-0.9981,-0.0619381,0.0619381,-0.9981,717.7074,579.7324)"
     width="26.299999"
     height="17.799999" /><rect
     id="rect2999"
     x="386.89999"
     y="271.39999"
     transform="matrix(-0.9981,-0.0619381,0.0619381,-0.9981,782.2448,576.9589)"
     width="26.4"
     height="10" /><rect
     id="rect3009"
     x="354.10001"
     y="269.29999"
     transform="matrix(-0.9981,-0.0619381,0.0619381,-0.9981,716.8326,570.8601)"
     width="26.4"
     height="10" /><polygon
     id="polygon3021"
     points="392.7,285.9 393.3,275.9 403.4,276.5 402.7,286.6 " /><polygon
     id="polygon3029"
     points="373.6,284.7 374.2,274.7 364.1,274.1 363.5,284.1 " /><rect
     id="rect3051"
     x="454.10001"
     y="425.70001"
     transform="matrix(-0.9762,-0.2171,0.2171,-0.9762,840.5786,994.1066)"
     width="41.599998"
     height="50.400002" /><rect
     id="rect3067"
     x="378.10001"
     y="408.79999"
     transform="matrix(-0.9762,-0.2171,0.2171,-0.9762,694.0242,944.1954)"
     width="41.599998"
     height="50.400002" /><rect
     id="rect3109"
     x="214.60001"
     y="218.7"
     width="22"
     height="23.4" /><rect
     id="rect3117"
     x="184.10001"
     y="218.7"
     width="22"
     height="23.4" /><clipPath
     id="SVGID_2_-4-0">
						<use
   xlink:href="#SVGID_1_"
   overflow="visible"
   id="use394-3-8" />
					</clipPath><clipPath
     id="SVGID_4_-9-8">
						<use
   xlink:href="#SVGID_3_"
   overflow="visible"
   id="use406-9-7" />
					</clipPath><clipPath
     id="SVGID_6_-5-0">
						<use
   xlink:href="#SVGID_5_"
   overflow="visible"
   id="use421-7-5" />
					</clipPath><clipPath
     id="SVGID_8_-9-0">
						<use
   xlink:href="#SVGID_7_"
   overflow="visible"
   id="use437-0-1" />
					</clipPath><clipPath
     id="SVGID_10_-5-0">
					<use
   xlink:href="#SVGID_9_"
   overflow="visible"
   id="use456-3-1" />
				</clipPath><clipPath
     id="SVGID_12_-8-1">
					<use
   xlink:href="#SVGID_11_"
   overflow="visible"
   id="use468-7-7" />
				</clipPath><clipPath
     id="SVGID_14_-2-6">
							<use
   xlink:href="#SVGID_13_"
   overflow="visible"
   id="use503-1-9" />
						</clipPath><clipPath
     id="SVGID_16_-8-8">
							<use
   xlink:href="#SVGID_15_"
   overflow="visible"
   id="use531-4-7" />
						</clipPath><clipPath
     id="SVGID_18_-3-0">
						<use
   xlink:href="#SVGID_17_"
   overflow="visible"
   id="use603-9-0" />
					</clipPath><clipPath
     id="SVGID_20_-7-6">
						<use
   xlink:href="#SVGID_19_"
   overflow="visible"
   id="use615-3-8" />
					</clipPath><rect
     id="rect4188"
     x="385.79999"
     y="271.70001"
     transform="matrix(-0.9981,-0.0619381,0.0619381,-0.9981,779.7449,585.5165)"
     width="26.299999"
     height="17.799999" /><rect
     id="rect4196"
     x="354.70001"
     y="269.79999"
     transform="matrix(-0.9981,-0.0619381,0.0619381,-0.9981,717.7074,579.7324)"
     width="26.299999"
     height="17.799999" /><rect
     id="rect4206"
     x="386.89999"
     y="271.39999"
     transform="matrix(-0.9981,-0.0619381,0.0619381,-0.9981,782.2448,576.9589)"
     width="26.4"
     height="10" /><rect
     id="rect4216"
     x="354.10001"
     y="269.29999"
     transform="matrix(-0.9981,-0.0619381,0.0619381,-0.9981,716.8326,570.8601)"
     width="26.4"
     height="10" /><polygon
     id="polygon4228"
     points="403.4,276.5 402.7,286.6 392.7,285.9 393.3,275.9 " /><polygon
     id="polygon4236"
     points="364.1,274.1 363.5,284.1 373.6,284.7 374.2,274.7 " /><rect
     id="rect4258"
     x="454.10001"
     y="425.70001"
     transform="matrix(-0.9762,-0.2171,0.2171,-0.9762,840.5786,994.1066)"
     width="41.599998"
     height="50.400002" /><rect
     id="rect4274"
     x="378.10001"
     y="408.79999"
     transform="matrix(-0.9762,-0.2171,0.2171,-0.9762,694.0242,944.1954)"
     width="41.599998"
     height="50.400002" /><rect
     id="rect4316"
     x="214.60001"
     y="218.7"
     width="22"
     height="23.4" /><rect
     id="rect4324"
     x="184.10001"
     y="218.7"
     width="22"
     height="23.4" /></defs><sodipodi:namedview
   id="namedview770"
   pagecolor="#ffffff"
   bordercolor="#000000"
   borderopacity="0.25"
   inkscape:showpageshadow="2"
   inkscape:pageopacity="0.0"
   inkscape:pagecheckerboard="0"
   inkscape:deskcolor="#d1d1d1"
   showgrid="false"
   inkscape:zoom="2.3803301"
   inkscape:cx="89.063276"
   inkscape:cy="81.5013"
   inkscape:window-width="1920"
   inkscape:window-height="1017"
   inkscape:window-x="-8"
   inkscape:window-y="603"
   inkscape:window-maximized="1"
   inkscape:current-layer="Livello_1" />










<g
   id="g595"
   transform="matrix(0.26451944,0,0,0.29094234,-14.016331,-81.485974)">
	<g
   id="Layer_1_2_">
		<path
   fill="#ff33da"
   stroke="#8f1a7d"
   stroke-width="8"
   stroke-miterlimit="10"
   d="m 362.1,440.9 c 8.9,-39.8 48.1,-64.8 87.8,-56 39.6,8.8 64.6,48.1 55.8,87.7 -8.8,39.6 -50.5,49.1 -89.2,62.5 -29.8,-28.5 -63.2,-54.5 -54.4,-94.2 z"
   id="path497" />
	</g>
	<g
   id="Layer_3_2_">
		<g
   id="g556">
			<g
   id="g526">
				<g
   id="g524">
					<g
   id="g522">
						<defs
   id="defs501">
							
								<rect
   id="rect5711"
   x="454.10001"
   y="425.70001"
   transform="matrix(-0.9762,-0.2171,0.2171,-0.9762,840.5786,994.1066)"
   width="41.599998"
   height="50.400002" />
						</defs>
						<clipPath
   id="clipPath2289">
							<use
   xlink:href="#SVGID_13_"
   overflow="visible"
   id="use2287" />
						</clipPath>
						<g
   clip-path="url(#SVGID_14_-2-6)"
   id="g520">
							<path
   fill="#ffffff"
   d="m 456.2,445.2 c 15.7,-24 31.7,-22.9 37.1,9.3 0.2,0.7 0.2,1.6 0.2,2.3 0.8,18.9 -8.9,21.6 -17.7,20.1 -9.9,-1.7 -18.1,-8.9 -21.7,-18.2 -2.2,-5.5 -0.2,-10.2 2.1,-13.5 z"
   id="path506" />
							<g
   id="g512">
								<g
   id="g510">
									<path
   d="m 456.1,445.5 c 3.8,-6 8.5,-11.9 15.2,-14.9 3.3,-1.5 7.2,-2.3 10.6,-0.4 3.1,1.7 5.1,5.1 6.8,8 -0.3,-0.4 2.1,-2.3 2,-2.8 -2.1,-3.6 -4.5,-7.7 -8.9,-8.8 -4.4,-1.1 -9,1.1 -12.5,3.6 -6.3,4.4 -10.8,11.4 -14.8,18 0.2,-0.8 1.1,-1.8 1.6,-2.7 z"
   id="path508" />
								</g>
							</g>
							<g
   id="g518">
								<g
   id="g516">
									<path
   d="m 488.4,438.1 c 1.1,0.6 2.3,0.5 3.3,0.4 1.4,-0.2 2.9,-0.6 4.1,-1.3 0.2,0 0.2,-0.3 0.3,-0.5 0.2,-0.3 0.5,-0.6 0.7,-0.9 0.2,-0.3 0.5,-0.6 0.7,-1 0,-0.2 0.2,-0.3 0.3,-0.5 -1.2,0.8 -2.5,1.2 -4.1,1.3 -1.1,0.1 -2.4,0 -3.3,-0.4 0,0 -0.8,1.4 -1,1.3 -0.1,0 -1,1.7 -1,1.6 z"
   id="path514" />
								</g>
							</g>
						</g>
					</g>
				</g>
			</g>
			<g
   id="g554">
				<g
   id="g552">
					<g
   id="g550">
						<defs
   id="defs529">
							
								<rect
   id="rect5727"
   x="378.10001"
   y="408.79999"
   transform="matrix(-0.9762,-0.2171,0.2171,-0.9762,694.0242,944.1954)"
   width="41.599998"
   height="50.400002" />
						</defs>
						<clipPath
   id="clipPath2306">
							<use
   xlink:href="#SVGID_15_"
   overflow="visible"
   id="use2304" />
						</clipPath>
						<g
   clip-path="url(#SVGID_16_-8-8)"
   id="g548">
							<path
   fill="#ffffff"
   d="m 418.2,436.7 c -4,-28.4 -19.1,-34.2 -37.6,-7.3 -0.5,0.6 -0.8,1.4 -1.1,2 -8.7,16.8 -1.1,23.3 7.5,25.7 9.7,2.7 20.2,-0.3 27.4,-7.3 4.4,-4 4.3,-9.2 3.8,-13.1 z"
   id="path534" />
							<g
   id="g540">
								<g
   id="g538">
									<path
   d="m 419.3,437.3 c -0.9,-7.4 -2.3,-15.3 -6.8,-21.4 -2.2,-3.1 -5.5,-6.2 -9.7,-6.5 -3.9,-0.2 -7.4,2.3 -10.4,4.4 -0.8,0.7 -1,2.2 -2,2.8 3,-2.1 6.3,-4.4 10.3,-4.4 4.3,0.1 7.5,3.2 9.9,6.5 4.5,6.2 5.8,14 6.7,21.6 0,-0.2 0.8,-1.2 1,-1.3 0.2,-0.7 0.9,-1.4 1,-1.7 z"
   id="path536" />
								</g>
							</g>
							<g
   id="g546">
								<g
   id="g544">
									<path
   d="m 392.6,413.7 c -1.2,0.1 -2.3,-0.5 -3.2,-1.1 -1.2,-0.8 -2.2,-1.7 -3.1,-2.9 l -0.3,0.5 c -0.2,0.3 -0.5,0.6 -0.7,0.9 -0.2,0.3 -0.5,0.6 -0.7,1 l -0.3,0.5 c 0.8,1.2 1.8,2.1 3.1,2.9 0.9,0.5 2.2,1 3.2,1.1 l 0.3,-0.5 c 0.2,-0.3 0.5,-0.6 0.7,-0.9 0.2,-0.3 0.5,-0.6 0.7,-1 0,-0.2 0.3,-0.5 0.3,-0.5 z"
   id="path542" />
								</g>
							</g>
						</g>
					</g>
				</g>
			</g>
		</g>
	</g>
	<g
   id="Layer_4_2_">
		<path
   fill="#ff33da"
   d="m 381.8,419.4 c 9.1,7.9 31.3,10.1 39,1.1 7.7,-9 -9.5,-21.4 -9.5,-21.4 l -23.7,8.5 -3.3,2.5 -2.3,5.7 z"
   id="path559" />
		<path
   fill="#ff33da"
   d="m 382.1,460.5 c 7.5,-4.2 24,-8.8 31.8,-4.6 7.8,4.2 -10.3,4.4 -10.3,4.4 l -14.7,2.1 z"
   id="path561" />
	</g>
	<g
   id="Layer_5_2_">
		<path
   d="m 417.4,421.8 c -9.6,4.6 -20.8,3.6 -29.9,-1.8 0,0 -1.8,2.9 -2,2.8 9.1,5.5 20.2,6.4 29.9,1.8 0.4,-0.1 0.7,-1 1,-1.3 0.4,-0.5 0.8,-1.4 1,-1.5 z"
   id="path564" />
	</g>
	<g
   id="Layer_6_2_">
		<circle
   cx="473.10001"
   cy="453.70001"
   r="12.3"
   id="circle567" />
		<circle
   cx="399.5"
   cy="438.79999"
   r="12.3"
   id="circle569" />
	</g>
	<g
   id="Layer_7_2_">
		<circle
   fill="#ffffff"
   cx="476.89999"
   cy="451.29999"
   r="3.4000001"
   id="circle572" />
		<circle
   fill="#ffffff"
   cx="403.79999"
   cy="435.10001"
   r="3.4000001"
   id="circle574" />
	</g>
	<g
   id="Layer_8_1_">
		<path
   d="m 396.2,466.2 c 9.8,-3.8 17.9,5.5 24.8,10.8 7.9,6.1 18.1,8.2 27.8,5.8 0.7,-1 1,-1.5 2,-2.7 -9.6,2.3 -19.8,0.2 -27.8,-5.8 -6.9,-5.3 -15,-14.7 -24.8,-10.8 -0.5,0.6 -1.2,1.5 -2,2.7 z"
   id="path577" />
		<path
   d="m 387.8,458.9 c 5.4,-2.4 13.8,-4 20.7,-3.5 0.1,-0.5 0.1,-1.2 0.1,-1.2 -6.9,-0.7 -13.5,0.3 -20,3.1 0,0.5 -0.3,1 -0.8,1.6 z"
   id="path579" />
	</g>
	<g
   id="Layer_9">
		<g
   id="g586">
			<g
   id="g584">
				<path
   d="m 386,415.1 c 9.8,6 22.8,7.8 33,1.5 0.8,-0.5 1.5,-2.1 2,-2.8 0.5,-0.6 0.8,-1.4 1.3,-1.9 0,-0.2 0.3,-0.8 0.5,-0.7 -10.2,6.3 -23.1,4.3 -33,-1.5 -0.1,-0.1 -3.6,5.6 -3.8,5.4 z"
   id="path582" />
			</g>
		</g>
		<g
   id="g592">
			<g
   id="g590">
				<path
   d="m 453.4,433 c 7.2,-8.4 18.6,-12.5 29.6,-10.8 0.3,0.1 1.8,-2.5 2,-2.8 0.2,-0.3 1.7,-2.9 1.8,-2.9 -11,-1.7 -22.2,2.5 -29.6,10.8 -1.4,2 -2.2,4.2 -3.8,5.7 z"
   id="path588" />
			</g>
		</g>
	</g>
</g><g
   id="g699"
   transform="matrix(0.26451944,0,0,0.29094234,-14.016331,-81.485974)">
	<g
   id="Layer_1">
		<path
   fill="#08ff00"
   stroke="#048000"
   stroke-width="8.3721"
   stroke-miterlimit="10"
   d="m 89.5,468.6 c -7.6,-39.8 18.6,-78.3 58.5,-85.8 39.9,-7.5 78.3,18.6 85.8,58.5 7.5,39.9 -26.9,64.9 -57.2,92.4 -38.5,-14.5 -79.5,-25.2 -87.1,-65.1 z"
   id="path654" />
	</g>
	<g
   id="Layer_2">
		<g
   id="g661">
			<g
   id="g659">
				<path
   d="m 142,495 c 10.6,-12 25.8,-18.6 41.2,-21.9 4.7,-1 9.5,-1.8 14.3,-2.3 0,0 -0.3,-1.7 -0.3,-1.6 -16.2,1.9 -32.5,6 -45.9,15.6 -3.5,2.5 -6.7,5.4 -9.6,8.7 -0.2,0.1 0.6,1.3 0.3,1.5 z"
   id="path657" />
			</g>
		</g>
		<g
   id="g667">
			<g
   id="g665">
				<path
   d="m 168.8,492.6 c 4.6,-1.1 8.8,-3.6 12,-7.1 0.1,-0.1 -0.1,-0.7 -0.1,-0.8 0,-0.1 -0.2,-0.7 -0.2,-0.8 -3.2,3.5 -7.4,6 -12,7.1 -0.1,-0.1 0.3,1.6 0.3,1.6 z"
   id="path663" />
			</g>
		</g>
	</g>
	<g
   id="Layer_3">
		<path
   fill="#ffffff"
   d="m 171.8,447.1 c -9.4,-21 -0.2,-46.2 20.1,-28.9 20.3,17.3 14.5,34.3 5.8,38.8 -8.8,4.5 -20.5,2.3 -25.9,-9.9 z"
   id="path670" />
		<path
   fill="#ffffff"
   d="m 149.9,452.3 c 1.1,-23 -16.7,-43 -29.3,-19.6 -12.6,23.4 -0.9,37.3 8.9,38.2 9.8,0.9 19.7,-5.2 20.4,-18.6 z"
   id="path672" />
	</g>
	<g
   id="Layer_6">
		<circle
   cx="189.89999"
   cy="430.10001"
   r="7.8000002"
   id="circle675" />
		<circle
   cx="140.39999"
   cy="450"
   r="7.8000002"
   id="circle677" />
	</g>
	<g
   id="Layer_7">
		<circle
   fill="#ffffff"
   cx="191.2"
   cy="426.5"
   r="2"
   id="circle680" />
		<circle
   fill="#ffffff"
   cx="141.60001"
   cy="446"
   r="2"
   id="circle682" />
	</g>
	<g
   id="Layer_4">
		<path
   fill="#08ff00"
   d="m 107.7,448.1 c 9.8,1.3 35.2,-4.3 43.9,-19.3 5,-8.6 -2.4,-22.3 -2.4,-22.3 l -40,22.6 z"
   id="path685" />
	</g>
	<g
   id="Layer_5">
		<g
   id="g692">
			<g
   id="g690">
				<path
   d="m 112.9,449.5 c 6.3,-0.9 12.5,-2.4 18.5,-4.8 5.9,-2.4 11.4,-5.8 16.4,-9.9 0.2,-0.2 -0.5,-1.5 -0.3,-1.6 -5,4 -10.5,7.4 -16.4,9.9 -5.9,2.4 -12.1,3.9 -18.5,4.8 0,0 0.2,1.6 0.3,1.6 z"
   id="path688" />
			</g>
		</g>
		<path
   d="m 111,440.9 c 8.4,-1.3 22.2,-5.1 32.3,-16.3 2.8,-3.1 2.6,-8 -0.6,-10.8 -8.1,-7 -19.6,4.2 -22.6,8 l -11.9,14.3 c -1.7,2 0.1,5.2 2.8,4.8 z"
   id="path694" />
		<path
   d="m 194,407.3 c -8.3,1.9 -22.6,3.4 -36.1,-3.4 -3.7,-1.9 -5.4,-6.5 -3.4,-10.2 5,-9.5 19.8,-3.2 23.9,-0.9 l 16.3,8.9 c 2.4,1.4 2,5 -0.7,5.6 z"
   id="path696" />
	</g>
</g><g
   id="g733"
   transform="matrix(0.26451944,0,0,0.29094234,-14.016331,-81.485974)">
	<g
   id="Base_2_">
		<path
   fill="#ff3333"
   stroke="#991f1f"
   stroke-width="11.1759"
   stroke-miterlimit="10"
   d="m 199.8,527.4 c 0,-54.1 43.9,-98 98,-98 54.1,0 98,43.9 98,98 0,54.1 -51.4,78.4 -98,107 -46.8,-28.6 -98,-52.9 -98,-107 z"
   id="path701" />
	</g>
	<g
   id="Layer_2_1_">
		<path
   fill="#ffffff"
   d="m 309.5,514.1 c 0,0 17.1,-51.7 56.7,-21.3 2.6,32.3 -25.7,38 -37.3,34.1 -8.7,-2.9 -14.8,-6.9 -19.4,-12.8 z"
   id="path704" />
		<path
   fill="#ffffff"
   d="m 232.3,495.3 c -6,23.2 29.8,61.8 53.7,18"
   id="path706" />
		<path
   d="m 223.1,492.8 c 0,0 66.8,-11.8 63.5,21.5"
   id="path708" />
		<path
   d="m 367,471.6 c 0,0 -66.8,-11.8 -63.5,21.5"
   id="path710" />
	</g>
	<g
   id="Layer_5_3_">
		<path
   fill="#ff3333"
   d="m 215.8,525.5 c 10.3,-18.9 34.6,-4.1 45.2,8.7 10.9,23.1 2.9,12.2 2.9,12.2 z"
   id="path713" />
	</g>
	<g
   id="Layer_3_3_">
		<circle
   cx="335.10001"
   cy="509.79999"
   r="12.9"
   id="circle716" />
		<circle
   cx="261.39999"
   cy="512.59998"
   r="12.9"
   id="circle718" />
	</g>
	<g
   id="Layer_7_3_">
		<circle
   fill="#ffffff"
   cx="266.70001"
   cy="512.59998"
   r="2.8"
   id="circle721" />
		<circle
   fill="#ffffff"
   cx="339.5"
   cy="506.10001"
   r="2.8"
   id="circle723" />
	</g>
	<g
   id="Layer_10_2_">
		<g
   id="g730">
			<g
   id="g728">
				<path
   d="m 240.1,533.8 c 1.9,30.9 31,55.8 61.8,53.6 8.8,-0.6 17.2,-3.3 24.6,-7.9 2.1,-1.3 -4.5,-7 -6.5,-5.8 -14.3,9 -33.7,11 -48.9,3.1 -14.1,-7.3 -22.5,-23.1 -23.5,-38.6 -0.1,-1.8 -2.4,-3.4 -3.8,-4.1 -0.6,-0.4 -3.9,-2 -3.7,-0.3 z"
   id="path726" />
			</g>
		</g>
	</g>
</g><g
   id="g759"
   transform="matrix(0.26451944,0,0,0.29094234,-14.016331,-81.485974)">
	<g
   id="g747">
		<g
   id="g745">
			<path
   fill="#ffd426"
   stroke="#000000"
   stroke-width="1.528"
   stroke-miterlimit="10"
   d="m 211.6,455.9 -0.4,-12 c 0,-0.6 -0.3,-1.2 -0.7,-1.6 -1,-1.1 -2.5,-3.3 0.2,-5.3 3.6,-2.7 23.7,-8.2 23.7,-8.2 0,0 35.1,-7.7 64,-6.8 0,0 22.3,-0.5 40.1,2.5 17.8,3 27.3,5.2 27.3,5.2 0,0 9.3,1.8 17.5,5 0,0 1.9,1.7 0.8,3.4 -0.3,0.5 -0.6,1.2 -0.5,1.8 0.3,2.6 0.8,9.3 -1.5,15.1 -0.2,0.6 -0.3,1.2 -0.1,1.8 0.4,1.1 0.8,3.2 -0.7,4.7 -0.6,0.6 -1.6,0.8 -2.5,0.5 -4.2,-1.5 -20.7,-6.5 -51.7,-8.7 -36.5,-2.7 -58.6,-1.1 -85.5,3.4 0,0 -20.3,2.6 -24.3,6.7 -0.8,0.8 -2,0.9 -3,0.5 -1.9,-0.9 -4.2,-2.4 -3,-4 0.5,-0.6 0.7,-1.4 0.5,-2.1 -0.2,-0.6 -0.3,-1.2 -0.2,-1.9 z"
   id="path735" />
			<path
   fill="#ffd426"
   stroke="#000000"
   stroke-width="1.528"
   stroke-miterlimit="10"
   d="m 236.5,418.9 c 1.7,0.7 2.1,3 0.6,4.2 -3.4,2.7 -7,3.3 -7,3.3 0,0 -2.3,0.7 -4.9,0 -2,-0.5 -2.5,-3.1 -0.9,-4.4 0.9,-0.7 1.7,-1.8 2,-3.4 0.9,-4.5 1.3,-7.1 0.8,-9.9 0,0 -0.1,-1.2 -0.4,-2 -0.4,-0.8 -4.1,-2.6 -2.9,-6 1.1,-3.4 2.6,-2.9 2.6,-2.9 0,0 2.9,-0.5 4.8,2.8 1.9,3.3 -0.5,5.1 -0.5,5.1 0,0 -0.4,0.8 -0.1,1.6 0.2,0.9 1.1,7.6 3.9,10.1 0.6,0.8 1.3,1.2 2,1.5 z"
   id="path737" />
			<path
   fill="#ffd426"
   stroke="#000000"
   stroke-width="1.528"
   stroke-miterlimit="10"
   d="m 281.6,408.5 c 1.1,0.8 2.2,2.5 1.4,3.6 -1.3,1.9 -3.3,2.7 -4.8,4.1 -2.3,2.3 -4.7,2 -5.8,1.8 -0.3,-0.1 -0.6,-0.2 -0.9,-0.3 -3.9,-1.2 -9.1,-5.5 -10.7,-7.3 -0.8,-0.9 2.7,-2.5 3.5,-3.4 1.6,-1.9 4.2,-5.4 4.6,-9.5 0,0 0.9,-3.3 0.8,-3.8 -0.1,-0.5 0.2,-1 -0.7,-1.2 -0.9,-0.2 -8,-3.4 -3.8,-8.8 3.8,-4.9 9,-1.7 9.9,-1.1 0.1,0.1 0.2,0.1 0.2,0.2 0.6,0.6 3.6,3.5 0.9,7.6 -0.2,0.3 -0.5,0.6 -0.8,0.8 -0.5,0.3 -1.4,0.8 -1.6,0.8 -0.4,0.1 -0.5,0.9 -0.4,1.9 0.1,1 1.1,6.8 3.8,10.3 2.7,3.3 4.4,4.3 4.4,4.3 z"
   id="path739" />
			<path
   fill="#ffd426"
   stroke="#000000"
   stroke-width="1.528"
   stroke-miterlimit="10"
   d="m 327.7,410.5 c 1.5,0.8 1.7,3 0.3,4 -4.1,3.3 -8,4 -9.3,3.7 -2.1,-0.6 -4.5,-1.9 -6.4,-4.2 -0.4,-0.5 -0.7,-1.1 -1,-1.7 -0.8,-1.3 0.8,-3.1 2.2,-3.6 0.9,-0.4 1.8,-1 2.7,-2.2 2.2,-3.2 3.9,-5.9 4.5,-8.5 0.6,-2.5 0.6,-4.3 0.6,-4.3 0,0 0.4,-1.1 -1.1,-1.7 -1.5,-0.6 -4.9,-4 -2.9,-7 1.4,-2.1 2.8,-2.9 3.5,-3.2 0.3,-0.1 0.5,-0.2 0.8,-0.2 1.1,-0.1 4.4,0 5.7,2.7 1.6,3.3 -0.6,5.9 -0.6,5.9 0,0 -1.4,1.8 -2.5,2.1 -1.1,0.4 -0.7,6.1 -0.7,6.1 0,0 -0.4,6.3 1.9,9.8 0.6,1.2 1.5,1.9 2.3,2.3 z"
   id="path741" />
			<path
   fill="#ffd426"
   stroke="#000000"
   stroke-width="1.528"
   stroke-miterlimit="10"
   d="m 370.9,422.6 c -0.9,1 -1.9,1.9 -2.9,2.7 -5.3,4.3 -10.7,-1.2 -10.7,-1.2 0,0 0,0 -0.9,-0.7 -0.6,-0.5 -2.1,-2.7 -3.5,-5.8 -0.6,-1.4 0.1,-3 1.6,-3.4 1.2,-0.3 2.6,-1 3.7,-2.5 2.4,-3.5 5,-6.9 6.1,-9.6 l 1.2,-2.4 c 0,0 0.7,-0.6 -0.4,-2 -1.1,-1.4 -0.9,-3 -0.9,-3 0,0 0.2,-3.8 3.3,-4.6 3.1,-0.8 4.6,0.2 4.6,0.2 0,0 4.6,2.4 1.9,7 0,0 -1.1,2.3 -4.2,2.4 -1.1,0 -2.1,0.8 -2.4,1.9 -0.1,0.3 -0.1,0.6 -0.2,0.9 -0.4,2.5 -2.6,11.2 -2.6,15.6 0,4.4 1.2,4.3 1.2,4.3 0,0 2,1.4 4,0.7 z"
   id="path743" />
		</g>
	</g>
	<path
   fill="none"
   stroke="#ffffff"
   stroke-width="2.2008"
   stroke-linecap="round"
   stroke-miterlimit="10"
   d="m 214.5,457.7 c 0,0 3.8,-3.9 34.2,-7.6"
   id="path749" />
	<path
   fill="none"
   stroke="#ffffff"
   stroke-width="2.2008"
   stroke-linecap="round"
   stroke-miterlimit="10"
   d="m 382.2,439.3 c 0,0 -0.6,-1.4 -4.6,-2.5 -4,-1.1 -13.8,-3.5 -28.2,-6.4"
   id="path751" />
	<path
   fill="none"
   stroke="#ffffff"
   stroke-width="2.2008"
   stroke-linecap="round"
   stroke-miterlimit="10"
   d="m 380.4,456.3 c 0,0 -0.6,1.7 -6.5,-0.1 -5.9,-1.8 -16.6,-3.7 -16.6,-3.7"
   id="path753" />
	<path
   fill="none"
   stroke="#ffffff"
   stroke-width="2.2008"
   stroke-linecap="round"
   stroke-miterlimit="10"
   d="m 322.7,383.4 c 0,0 3.7,0.7 2.8,5.3"
   id="path755" />
	
		<line
   fill="none"
   stroke="#ffffff"
   stroke-width="2.2008"
   stroke-linecap="round"
   stroke-miterlimit="10"
   x1="197.89999"
   y1="379.60001"
   x2="202.10001"
   y2="390.39999"
   id="line757" />
</g><path
   fill="none"
   stroke="#ffffff"
   stroke-width="0.610538"
   stroke-linecap="round"
   stroke-miterlimit="10"
   d="m 58.514899,36.112905 c 0,0 0.714204,1.280151 1.428406,1.629276"
   id="path761" /><path
   fill="#ffd426"
   stroke="#000000"
   stroke-width="0.423892"
   stroke-miterlimit="10"
   d="m 61.874294,36.95665 c -0.846459,1.251044 -1.560663,2.007484 -2.301319,2.647563 -0.608395,0.523705 -1.243239,0.523705 -1.507761,0.436423 -0.07935,-0.0291 -0.15871,-0.0291 -0.238065,-0.05819 -1.110982,-0.378232 -2.43358,-1.541994 -2.83036,-2.065682 -1.322593,-1.192864 -2.116156,-4.015007 -2.645191,-6.808062 -0.39678,-2.123874 -0.529041,-6.109785 -0.608396,-6.517107 -0.07935,-0.407322 0.264518,-0.523695 0.264518,-0.523695 0,0 1.005174,-0.90192 0.634848,-2.647574 -0.343878,-1.716557 -1.3755,-1.949314 -1.3755,-1.949314 0,0 -1.90454,-0.640073 -1.798732,1.949314 0.07936,1.745654 0.608395,2.443914 0.952268,2.705761 0.158709,0.116379 0.290971,0.320039 0.290971,0.552791 0.02643,0.407321 0.07936,1.192858 0.264523,2.763957 0.317424,2.938512 0,9.601099 -0.396785,10.503019 0,0 -0.238064,0.69827 -0.476133,1.367428 -0.238064,0.669164 -0.555489,1.280152 -0.555489,1.280152 -1.084529,1.62927 -2.698099,1.978393 -2.698099,1.978393 0,0 -1.587115,0.4946 -2.486482,-0.872828 -0.899366,-1.367429 -1.825185,-3.433106 -1.825185,-3.433106 -1.454856,-3.083986 -1.930989,-4.625978 -2.30132,-5.353339 -0.343873,-0.756463 -1.428401,-4.189573 -1.640018,-4.567804 -0.211616,-0.378225 0.105808,-0.814632 0.105808,-0.814632 0.449681,-0.872835 0.0529,-1.832947 -0.02643,-2.065699 0,-0.0291 -0.02643,-0.05819 -0.0529,-0.08727 -0.793564,-1.396524 -1.983896,-0.901925 -1.983896,-0.901925 0,0 -0.846465,0.232757 -0.952273,1.541993 -0.105808,1.309236 1.21679,2.443913 1.454855,2.443913 0.23807,0 0.396784,0.290949 0.396784,0.290949 0,0 0.105803,0.55279 0.793553,2.763947 0.714204,2.211172 1.560668,6.138881 1.560668,6.138881 0,0 0.661297,2.734861 0.714204,4.538697 0.02643,1.22198 0.714203,2.269365 1.13743,2.793059 0.185162,0.232751 0.502587,0.320044 0.76711,0.174564 1.772279,-0.814643 5.475547,-1.949314 5.475547,-1.949314 0,0 9.284632,-2.240264 16.929247,-1.978399 0,0 5.898784,-0.145475 10.60723,0.727355 4.708443,0.872813 7.221378,1.512885 7.221378,1.512885 0,0 2.036794,0.436429 4.020695,1.192875 0.23807,0.08727 0.502587,0.0291 0.68775,-0.17457 0.185163,-0.203672 0.343873,-0.581876 0.449681,-1.251061 0.317424,-1.891117 1.110982,-6.284339 1.110982,-6.284339 0,0 1.110987,-5.353352 1.666471,-7.360836 0.211616,-0.727361 0.343878,-1.192869 0.449685,-1.454716 0.105808,-0.261858 0.343879,-0.407333 0.581943,-0.436423 0.555493,-0.0291 0.872913,-0.349125 0.872913,-0.349125 1.375505,-0.727355 1.031627,-2.211166 0.952272,-2.502109 0,-0.0291 -0.02643,-0.05819 -0.02643,-0.08728 -0.105803,-0.261848 -0.740652,-1.483801 -1.878088,-0.756446 -1.269691,0.814637 -1.110982,1.658371 -1.13743,2.298444 -0.02643,0.640078 -0.07935,0.843728 -0.185168,1.047394 -0.105808,0.174565 -1.296145,2.64758 -1.640017,4.073184 -0.370331,1.425625 -1.454861,4.538697 -2.195512,6.051605 -0.740657,1.512902 -1.745831,3.491301 -3.17423,4.742363 -1.401953,1.251043 -2.83036,-0.349119 -2.83036,-0.349119 0,0 0,0 -0.238069,-0.203672 -0.238065,-0.203672 -0.793559,-1.571078 -1.401954,-3.083986 -0.158709,-0.378231 -0.158709,-0.931027 -0.290971,-1.396519 -0.132256,-0.843744 -0.07936,-6.42983 0.23807,-9.222883 0.185163,-1.571084 0.423227,-2.327525 0.476133,-2.705761 0.02643,-0.232751 0.15871,-0.407321 0.343873,-0.523694 0.370331,-0.232758 1.084529,-0.843734 1.190343,-2.589388 0.105807,-1.832936 -1.534216,-2.007501 -1.534216,-2.007501 0,0 -1.137435,0.0291 -1.640022,1.716557 -0.502582,1.687468 0.423232,2.705761 0.423232,2.705761 0,0 0.317425,0.145475 0.211617,0.55279 -0.105809,0.407322 -0.581943,4.364138 -1.137431,6.429836 -0.740657,2.734862 -2.645197,6.051605 -3.861988,7.069887 l 0.02643,-0.0291 c -1.296145,1.483801 -2.645192,1.77475 -3.041976,1.65836 -0.555488,-0.174559 -1.190332,-0.552795 -1.692924,-1.221954 -0.264518,-0.378209 -0.714199,-0.931005 -1.005175,-1.60019 -1.719372,-3.200348 -1.904535,-8.728264 -1.904535,-8.728264 0,0 -0.238069,-4.276849 -0.290971,-5.062391 -0.02643,-0.290943 -0.02643,-0.523695 0,-0.727355 0.02643,-0.261853 0.15871,-0.494604 0.370325,-0.581887 0.158711,-0.08728 0.290972,-0.174564 0.343873,-0.232756 0.02643,-0.0291 0.05291,-0.0291 0.07936,-0.05819 0.132262,-0.145469 0.608401,-0.785541 0.555494,-1.862032 -0.07936,-1.25105 -1.190337,-1.80384 -1.190337,-1.80384 0,0 -1.269692,-0.698265 -1.825186,1.076485 -0.555488,1.77475 0.714204,2.822139 0.714204,2.822139 0,0 0.264518,0.0291 0.264518,0.552795 0,0.523695 -0.396775,5.847939 -0.396775,5.847939 0,0 -0.6084,5.731566 -2.380679,8.291863 z"
   id="path763" /><path
   fill="none"
   stroke="#ffffff"
   stroke-width="0.610538"
   stroke-linecap="round"
   stroke-miterlimit="10"
   d="m 65.313049,18.889124 c 0,0 0.92582,0.5237 0.52904,1.949315"
   id="path765" /><path
   fill="none"
   stroke="#ffffff"
   stroke-width="0.610538"
   stroke-linecap="round"
   stroke-miterlimit="10"
   d="m 65.418862,32.88345 c 0,0 0.899362,5.149685 2.592285,6.342548"
   id="path767" /></svg>
